<svg width="24" height="24" viewBox="0 0 24 24" fill="none" xmlns="http://www.w3.org/2000/svg">
<g clip-path="url(#clip0_10_42)" filter="url(#filter0_d_10_42)">
<g filter="url(#filter1_d_10_42)">
<path d="M19.9844 4.70404C19.9469 3.8539 19.8094 3.26944 19.6125 2.76299C19.4093 2.22541 19.0967 1.74412 18.6872 1.34401C18.2871 0.937683 17.8027 0.621948 17.2713 0.421957C16.7619 0.22502 16.1805 0.0875415 15.3304 0.0500586C14.4739 0.00940124 14.202 0 12.0297 0C9.8574 0 9.5855 0.00940124 8.73218 0.0468842C7.88204 0.0843671 7.29757 0.221967 6.79125 0.418783C6.25355 0.621948 5.77225 0.934509 5.37215 1.34401C4.96582 1.74412 4.65021 2.22858 4.45009 2.75994C4.25316 3.26944 4.11568 3.85073 4.0782 4.70087C4.03754 5.55736 4.02814 5.82926 4.02814 8.00156C4.02814 10.1739 4.03754 10.4458 4.07502 11.2991C4.1125 12.1492 4.2501 12.7337 4.44704 13.2401C4.65021 13.7777 4.96582 14.259 5.37215 14.6591C5.77225 15.0654 6.25672 15.3812 6.78807 15.5812C7.29757 15.7781 7.87886 15.9156 8.72913 15.9531C9.58232 15.9907 9.85435 16 12.0266 16C14.1989 16 14.4708 15.9907 15.3242 15.9531C16.1743 15.9156 16.7588 15.7781 17.2651 15.5812C18.3404 15.1654 19.1905 14.3153 19.6062 13.2401C19.8031 12.7306 19.9407 12.1492 19.9781 11.2991C20.0156 10.4458 20.025 10.1739 20.025 8.00156C20.025 5.82926 20.0219 5.55736 19.9844 4.70404ZM18.5435 11.2366C18.5091 12.018 18.3779 12.4399 18.2685 12.7212C17.9996 13.4183 17.4464 13.9715 16.7494 14.2403C16.4681 14.3497 16.0431 14.481 15.2647 14.5153C14.4208 14.5529 14.1677 14.5622 12.0329 14.5622C9.89806 14.5622 9.64178 14.5529 8.80092 14.5153C8.01952 14.481 7.59756 14.3497 7.31625 14.2403C6.96938 14.1121 6.65365 13.909 6.39737 13.6433C6.1317 13.3838 5.92853 13.0713 5.80033 12.7244C5.69094 12.4431 5.55969 12.018 5.52538 11.2397C5.48777 10.3958 5.47849 10.1426 5.47849 8.00779C5.47849 5.87297 5.48777 5.6167 5.52538 4.77596C5.55969 3.99455 5.69094 3.5726 5.80033 3.29129C5.92853 2.9443 6.1317 2.62869 6.40055 2.37229C6.65988 2.10661 6.97244 1.90345 7.31943 1.77537C7.60073 1.66597 8.02586 1.53472 8.80409 1.50029C9.64801 1.46281 9.90123 1.45341 12.0359 1.45341C14.1739 1.45341 14.427 1.46281 15.2679 1.50029C16.0493 1.53472 16.4712 1.66597 16.7525 1.77537C17.0994 1.90345 17.4151 2.10661 17.6714 2.37229C17.9371 2.63174 18.1403 2.9443 18.2685 3.29129C18.3779 3.5726 18.5091 3.99761 18.5435 4.77596C18.581 5.61987 18.5904 5.87297 18.5904 8.00779C18.5904 10.1426 18.581 10.3927 18.5435 11.2366Z" fill="white"/>
</g>
<g filter="url(#filter2_d_10_42)">
<path d="M12.0297 3.89136C9.76055 3.89136 7.91949 5.73229 7.91949 8.00154C7.91949 10.2708 9.76055 12.1117 12.0297 12.1117C14.2989 12.1117 16.1398 10.2708 16.1398 8.00154C16.1398 5.73229 14.2989 3.89136 12.0297 3.89136ZM12.0297 10.6677C10.5576 10.6677 9.3635 9.47375 9.3635 8.00154C9.3635 6.52932 10.5576 5.33537 12.0297 5.33537C13.5019 5.33537 14.6958 6.52932 14.6958 8.00154C14.6958 9.47375 13.5019 10.6677 12.0297 10.6677V10.6677Z" fill="white"/>
</g>
<g filter="url(#filter3_d_10_42)">
<path d="M17.262 3.72883C17.262 4.25872 16.8324 4.68836 16.3024 4.68836C15.7725 4.68836 15.3428 4.25872 15.3428 3.72883C15.3428 3.19881 15.7725 2.76929 16.3024 2.76929C16.8324 2.76929 17.262 3.19881 17.262 3.72883V3.72883Z" fill="white"/>
</g>
</g>
<defs>
<filter id="filter0_d_10_42" x="0" y="0" width="24" height="24" filterUnits="userSpaceOnUse" color-interpolation-filters="sRGB">
<feFlood flood-opacity="0" result="BackgroundImageFix"/>
<feColorMatrix in="SourceAlpha" type="matrix" values="0 0 0 0 0 0 0 0 0 0 0 0 0 0 0 0 0 0 127 0" result="hardAlpha"/>
<feOffset dy="4"/>
<feGaussianBlur stdDeviation="2"/>
<feComposite in2="hardAlpha" operator="out"/>
<feColorMatrix type="matrix" values="0 0 0 0 0 0 0 0 0 0 0 0 0 0 0 0 0 0 0.25 0"/>
<feBlend mode="normal" in2="BackgroundImageFix" result="effect1_dropShadow_10_42"/>
<feBlend mode="normal" in="SourceGraphic" in2="effect1_dropShadow_10_42" result="shape"/>
</filter>
<filter id="filter1_d_10_42" x="0.0281372" y="0" width="23.9969" height="24" filterUnits="userSpaceOnUse" color-interpolation-filters="sRGB">
<feFlood flood-opacity="0" result="BackgroundImageFix"/>
<feColorMatrix in="SourceAlpha" type="matrix" values="0 0 0 0 0 0 0 0 0 0 0 0 0 0 0 0 0 0 127 0" result="hardAlpha"/>
<feOffset dy="4"/>
<feGaussianBlur stdDeviation="2"/>
<feComposite in2="hardAlpha" operator="out"/>
<feColorMatrix type="matrix" values="0 0 0 0 0 0 0 0 0 0 0 0 0 0 0 0 0 0 0.25 0"/>
<feBlend mode="normal" in2="BackgroundImageFix" result="effect1_dropShadow_10_42"/>
<feBlend mode="normal" in="SourceGraphic" in2="effect1_dropShadow_10_42" result="shape"/>
</filter>
<filter id="filter2_d_10_42" x="3.91949" y="3.89136" width="16.2203" height="16.2205" filterUnits="userSpaceOnUse" color-interpolation-filters="sRGB">
<feFlood flood-opacity="0" result="BackgroundImageFix"/>
<feColorMatrix in="SourceAlpha" type="matrix" values="0 0 0 0 0 0 0 0 0 0 0 0 0 0 0 0 0 0 127 0" result="hardAlpha"/>
<feOffset dy="4"/>
<feGaussianBlur stdDeviation="2"/>
<feComposite in2="hardAlpha" operator="out"/>
<feColorMatrix type="matrix" values="0 0 0 0 0 0 0 0 0 0 0 0 0 0 0 0 0 0 0.25 0"/>
<feBlend mode="normal" in2="BackgroundImageFix" result="effect1_dropShadow_10_42"/>
<feBlend mode="normal" in="SourceGraphic" in2="effect1_dropShadow_10_42" result="shape"/>
</filter>
<filter id="filter3_d_10_42" x="11.3428" y="2.76929" width="9.91919" height="9.91919" filterUnits="userSpaceOnUse" color-interpolation-filters="sRGB">
<feFlood flood-opacity="0" result="BackgroundImageFix"/>
<feColorMatrix in="SourceAlpha" type="matrix" values="0 0 0 0 0 0 0 0 0 0 0 0 0 0 0 0 0 0 127 0" result="hardAlpha"/>
<feOffset dy="4"/>
<feGaussianBlur stdDeviation="2"/>
<feComposite in2="hardAlpha" operator="out"/>
<feColorMatrix type="matrix" values="0 0 0 0 0 0 0 0 0 0 0 0 0 0 0 0 0 0 0.25 0"/>
<feBlend mode="normal" in2="BackgroundImageFix" result="effect1_dropShadow_10_42"/>
<feBlend mode="normal" in="SourceGraphic" in2="effect1_dropShadow_10_42" result="shape"/>
</filter>
<clipPath id="clip0_10_42">
<rect width="16" height="16" fill="white" transform="translate(4)"/>
</clipPath>
</defs>
</svg>
